<?xml version="1.0" encoding="utf-8"?>
<!-- Generator: Adobe Illustrator 16.0.0, SVG Export Plug-In . SVG Version: 6.00 Build 0)  -->
<!DOCTYPE svg PUBLIC "-//W3C//DTD SVG 1.1//EN" "http://www.w3.org/Graphics/SVG/1.1/DTD/svg11.dtd">
<svg version="1.1" id="Layer_1" xmlns="http://www.w3.org/2000/svg" xmlns:xlink="http://www.w3.org/1999/xlink" x="0px" y="0px"
	 width="64px" height="64px" viewBox="0 0 64 64" enable-background="new 0 0 64 64" xml:space="preserve">
<g>
	<g>
		<path fill="#999999" d="M31.914,2C15.419,2,2,15.457,2,31.996c0,16.541,13.419,29.998,29.914,29.998
			c16.494,0,29.914-13.457,29.914-29.998C61.827,15.457,48.407,2,31.914,2z M31.914,55.611c-12.984,0-23.549-10.593-23.549-23.615
			c0-13.021,10.564-23.613,23.549-23.613c12.985,0,23.549,10.593,23.549,23.613C55.463,45.019,44.898,55.611,31.914,55.611z"/>
		<path fill="#999999" d="M47.504,31.071H34.061V14.862c0-1.363-1.103-2.469-2.464-2.469c-1.36,0-2.462,1.106-2.462,2.469V33.54
			c0,1.363,1.102,2.471,2.462,2.471h15.907c1.359,0,2.463-1.107,2.463-2.471C49.967,32.176,48.863,31.071,47.504,31.071z"/>
	</g>
</g>
</svg>
